<mxfile host="app.diagrams.net" modified="2023-02-22T11:11:59.645Z" agent="5.0 (X11; Linux x86_64) AppleWebKit/537.36 (KHTML, like Gecko) Chrome/111.0.0.0 Safari/537.36 Edg/111.0.0.0" etag="8ZO7ipFcJcC98WYsXB2O" version="20.8.22" type="github">
  <diagram name="Page-1" id="_SWuK8s0p5_UGVfFd3VV">
    <mxGraphModel dx="2177" dy="1195" grid="0" gridSize="10" guides="1" tooltips="1" connect="1" arrows="1" fold="1" page="0" pageScale="1" pageWidth="850" pageHeight="1100" math="0" shadow="0">
      <root>
        <mxCell id="0" />
        <mxCell id="1" parent="0" />
        <mxCell id="7C2moZ2AQRQRGgK9pVOp-9" style="edgeStyle=none;curved=1;rounded=0;orthogonalLoop=1;jettySize=auto;html=1;entryX=0;entryY=0.5;entryDx=0;entryDy=0;fontSize=12;shape=flexArrow;fillColor=#dae8fc;strokeColor=#6c8ebf;" parent="1" source="7C2moZ2AQRQRGgK9pVOp-1" target="7C2moZ2AQRQRGgK9pVOp-2" edge="1">
          <mxGeometry relative="1" as="geometry" />
        </mxCell>
        <mxCell id="7C2moZ2AQRQRGgK9pVOp-12" style="edgeStyle=none;curved=1;rounded=0;orthogonalLoop=1;jettySize=auto;html=1;fontSize=12;startArrow=classic;startFill=1;endArrow=none;endFill=0;shape=flexArrow;fillColor=#dae8fc;strokeColor=#6c8ebf;" parent="1" source="7C2moZ2AQRQRGgK9pVOp-1" edge="1">
          <mxGeometry relative="1" as="geometry">
            <mxPoint x="-360" y="-297" as="targetPoint" />
          </mxGeometry>
        </mxCell>
        <mxCell id="7C2moZ2AQRQRGgK9pVOp-1" value="地&lt;br&gt;址&lt;br&gt;寄&lt;br&gt;存&lt;br&gt;器" style="rounded=0;whiteSpace=wrap;html=1;fontSize=16;labelPosition=center;verticalLabelPosition=middle;align=center;verticalAlign=middle;horizontal=1;fillColor=#d5e8d4;strokeColor=#82b366;" parent="1" vertex="1">
          <mxGeometry x="-307" y="-361" width="48" height="128" as="geometry" />
        </mxCell>
        <mxCell id="7C2moZ2AQRQRGgK9pVOp-10" style="edgeStyle=none;curved=1;rounded=0;orthogonalLoop=1;jettySize=auto;html=1;entryX=0;entryY=0.5;entryDx=0;entryDy=0;fontSize=12;shape=flexArrow;startArrow=block;fillColor=#dae8fc;strokeColor=#6c8ebf;" parent="1" source="7C2moZ2AQRQRGgK9pVOp-2" target="7C2moZ2AQRQRGgK9pVOp-4" edge="1">
          <mxGeometry relative="1" as="geometry" />
        </mxCell>
        <mxCell id="7C2moZ2AQRQRGgK9pVOp-2" value="存&lt;br&gt;储&lt;br&gt;体" style="whiteSpace=wrap;html=1;fontSize=16;fillColor=#ffe6cc;strokeColor=#d79b00;" parent="1" vertex="1">
          <mxGeometry x="-193" y="-336" width="44" height="78" as="geometry" />
        </mxCell>
        <mxCell id="7C2moZ2AQRQRGgK9pVOp-11" style="edgeStyle=none;curved=1;rounded=0;orthogonalLoop=1;jettySize=auto;html=1;fontSize=12;shape=flexArrow;startArrow=block;fillColor=#dae8fc;strokeColor=#6c8ebf;" parent="1" source="7C2moZ2AQRQRGgK9pVOp-4" edge="1">
          <mxGeometry relative="1" as="geometry">
            <mxPoint x="21" y="-297" as="targetPoint" />
          </mxGeometry>
        </mxCell>
        <mxCell id="7C2moZ2AQRQRGgK9pVOp-4" value="数&lt;br&gt;据&lt;br&gt;寄&lt;br&gt;存&lt;br&gt;器" style="rounded=0;whiteSpace=wrap;html=1;fontSize=16;labelPosition=center;verticalLabelPosition=middle;align=center;verticalAlign=middle;horizontal=1;fillColor=#fff2cc;strokeColor=#d6b656;" parent="1" vertex="1">
          <mxGeometry x="-83" y="-361" width="48" height="128" as="geometry" />
        </mxCell>
        <mxCell id="7C2moZ2AQRQRGgK9pVOp-6" style="edgeStyle=none;curved=1;rounded=0;orthogonalLoop=1;jettySize=auto;html=1;entryX=0.5;entryY=1;entryDx=0;entryDy=0;fontSize=12;startSize=8;endSize=8;fillColor=#dae8fc;strokeColor=#6c8ebf;" parent="1" source="7C2moZ2AQRQRGgK9pVOp-5" target="7C2moZ2AQRQRGgK9pVOp-2" edge="1">
          <mxGeometry relative="1" as="geometry" />
        </mxCell>
        <mxCell id="7C2moZ2AQRQRGgK9pVOp-7" style="edgeStyle=orthogonalEdgeStyle;rounded=0;orthogonalLoop=1;jettySize=auto;html=1;entryX=0.5;entryY=1;entryDx=0;entryDy=0;fontSize=12;startSize=8;endSize=8;fillColor=#dae8fc;strokeColor=#6c8ebf;" parent="1" source="7C2moZ2AQRQRGgK9pVOp-5" target="7C2moZ2AQRQRGgK9pVOp-1" edge="1">
          <mxGeometry relative="1" as="geometry" />
        </mxCell>
        <mxCell id="7C2moZ2AQRQRGgK9pVOp-8" style="edgeStyle=orthogonalEdgeStyle;rounded=0;orthogonalLoop=1;jettySize=auto;html=1;entryX=0.5;entryY=1;entryDx=0;entryDy=0;fontSize=12;startSize=8;endSize=8;fillColor=#dae8fc;strokeColor=#6c8ebf;" parent="1" source="7C2moZ2AQRQRGgK9pVOp-5" target="7C2moZ2AQRQRGgK9pVOp-4" edge="1">
          <mxGeometry relative="1" as="geometry" />
        </mxCell>
        <mxCell id="7C2moZ2AQRQRGgK9pVOp-5" value="时序控制逻辑" style="rounded=0;whiteSpace=wrap;html=1;fontSize=16;labelPosition=center;verticalLabelPosition=middle;align=center;verticalAlign=middle;horizontal=1;direction=south;fillColor=#f8cecc;strokeColor=#b85450;" parent="1" vertex="1">
          <mxGeometry x="-235" y="-178" width="128" height="48" as="geometry" />
        </mxCell>
        <mxCell id="0IixsMasFr1ZADonXlOX-12" style="edgeStyle=orthogonalEdgeStyle;rounded=0;orthogonalLoop=1;jettySize=auto;html=1;entryX=0;entryY=0.5;entryDx=0;entryDy=0;" parent="1" source="0IixsMasFr1ZADonXlOX-1" target="0IixsMasFr1ZADonXlOX-2" edge="1">
          <mxGeometry relative="1" as="geometry" />
        </mxCell>
        <mxCell id="0IixsMasFr1ZADonXlOX-1" value="CPU" style="rounded=0;whiteSpace=wrap;html=1;" parent="1" vertex="1">
          <mxGeometry x="-452" y="71" width="60" height="60" as="geometry" />
        </mxCell>
        <mxCell id="0IixsMasFr1ZADonXlOX-13" style="edgeStyle=orthogonalEdgeStyle;rounded=0;orthogonalLoop=1;jettySize=auto;html=1;entryX=0;entryY=0.5;entryDx=0;entryDy=0;" parent="1" source="0IixsMasFr1ZADonXlOX-2" target="0IixsMasFr1ZADonXlOX-3" edge="1">
          <mxGeometry relative="1" as="geometry" />
        </mxCell>
        <mxCell id="0IixsMasFr1ZADonXlOX-16" style="edgeStyle=orthogonalEdgeStyle;rounded=0;orthogonalLoop=1;jettySize=auto;html=1;entryX=0.47;entryY=0.077;entryDx=0;entryDy=0;entryPerimeter=0;" parent="1" source="0IixsMasFr1ZADonXlOX-2" target="0IixsMasFr1ZADonXlOX-11" edge="1">
          <mxGeometry relative="1" as="geometry" />
        </mxCell>
        <mxCell id="0IixsMasFr1ZADonXlOX-2" value="&amp;lt;" style="rhombus;whiteSpace=wrap;html=1;" parent="1" vertex="1">
          <mxGeometry x="-307" y="61" width="80" height="80" as="geometry" />
        </mxCell>
        <mxCell id="0IixsMasFr1ZADonXlOX-15" style="edgeStyle=orthogonalEdgeStyle;rounded=0;orthogonalLoop=1;jettySize=auto;html=1;" parent="1" source="0IixsMasFr1ZADonXlOX-3" target="0IixsMasFr1ZADonXlOX-4" edge="1">
          <mxGeometry relative="1" as="geometry" />
        </mxCell>
        <mxCell id="0IixsMasFr1ZADonXlOX-3" value="+" style="ellipse;whiteSpace=wrap;html=1;aspect=fixed;" parent="1" vertex="1">
          <mxGeometry x="-168" y="78.5" width="45" height="45" as="geometry" />
        </mxCell>
        <mxCell id="0IixsMasFr1ZADonXlOX-4" value="内存" style="rounded=0;whiteSpace=wrap;html=1;" parent="1" vertex="1">
          <mxGeometry x="-54" y="71" width="78" height="60" as="geometry" />
        </mxCell>
        <mxCell id="0IixsMasFr1ZADonXlOX-17" style="edgeStyle=orthogonalEdgeStyle;rounded=0;orthogonalLoop=1;jettySize=auto;html=1;entryX=0.5;entryY=0;entryDx=0;entryDy=0;" parent="1" source="0IixsMasFr1ZADonXlOX-5" target="0IixsMasFr1ZADonXlOX-2" edge="1">
          <mxGeometry relative="1" as="geometry" />
        </mxCell>
        <mxCell id="0IixsMasFr1ZADonXlOX-5" value="界地址寄存器" style="rounded=0;whiteSpace=wrap;html=1;" parent="1" vertex="1">
          <mxGeometry x="-313" y="-23" width="92" height="38" as="geometry" />
        </mxCell>
        <mxCell id="0IixsMasFr1ZADonXlOX-18" style="edgeStyle=orthogonalEdgeStyle;rounded=0;orthogonalLoop=1;jettySize=auto;html=1;entryX=0.5;entryY=0;entryDx=0;entryDy=0;" parent="1" source="0IixsMasFr1ZADonXlOX-6" target="0IixsMasFr1ZADonXlOX-3" edge="1">
          <mxGeometry relative="1" as="geometry" />
        </mxCell>
        <mxCell id="0IixsMasFr1ZADonXlOX-6" value="重定位寄存器" style="rounded=0;whiteSpace=wrap;html=1;" parent="1" vertex="1">
          <mxGeometry x="-189" y="-2" width="87" height="37" as="geometry" />
        </mxCell>
        <mxCell id="0IixsMasFr1ZADonXlOX-7" value="逻辑地址" style="text;html=1;align=center;verticalAlign=middle;resizable=0;points=[];autosize=1;strokeColor=none;fillColor=none;" parent="1" vertex="1">
          <mxGeometry x="-382" y="74" width="66" height="26" as="geometry" />
        </mxCell>
        <mxCell id="0IixsMasFr1ZADonXlOX-8" value="是" style="text;html=1;align=center;verticalAlign=middle;resizable=0;points=[];autosize=1;strokeColor=none;fillColor=none;" parent="1" vertex="1">
          <mxGeometry x="-212" y="76" width="30" height="26" as="geometry" />
        </mxCell>
        <mxCell id="0IixsMasFr1ZADonXlOX-9" value="物理地址" style="text;html=1;align=center;verticalAlign=middle;resizable=0;points=[];autosize=1;strokeColor=none;fillColor=none;" parent="1" vertex="1">
          <mxGeometry x="-120" y="76" width="66" height="26" as="geometry" />
        </mxCell>
        <mxCell id="0IixsMasFr1ZADonXlOX-10" value="否" style="text;html=1;align=center;verticalAlign=middle;resizable=0;points=[];autosize=1;strokeColor=none;fillColor=none;" parent="1" vertex="1">
          <mxGeometry x="-269" y="148" width="30" height="26" as="geometry" />
        </mxCell>
        <mxCell id="0IixsMasFr1ZADonXlOX-11" value="地址错误" style="text;html=1;align=center;verticalAlign=middle;resizable=0;points=[];autosize=1;strokeColor=none;fillColor=none;" parent="1" vertex="1">
          <mxGeometry x="-298" y="181" width="66" height="26" as="geometry" />
        </mxCell>
        <mxCell id="nhpWWC0AXzQ9nDcgwidZ-31" style="edgeStyle=orthogonalEdgeStyle;rounded=0;orthogonalLoop=1;jettySize=auto;html=1;entryX=1;entryY=0.5;entryDx=0;entryDy=0;" edge="1" parent="1" source="nhpWWC0AXzQ9nDcgwidZ-1" target="nhpWWC0AXzQ9nDcgwidZ-29">
          <mxGeometry relative="1" as="geometry" />
        </mxCell>
        <mxCell id="nhpWWC0AXzQ9nDcgwidZ-1" value="页号P" style="rounded=0;whiteSpace=wrap;html=1;" vertex="1" parent="1">
          <mxGeometry x="-147" y="429" width="59" height="37" as="geometry" />
        </mxCell>
        <mxCell id="nhpWWC0AXzQ9nDcgwidZ-13" style="edgeStyle=orthogonalEdgeStyle;rounded=0;orthogonalLoop=1;jettySize=auto;html=1;" edge="1" parent="1" source="nhpWWC0AXzQ9nDcgwidZ-2" target="nhpWWC0AXzQ9nDcgwidZ-11">
          <mxGeometry relative="1" as="geometry" />
        </mxCell>
        <mxCell id="nhpWWC0AXzQ9nDcgwidZ-2" value="页内偏移量W" style="rounded=0;whiteSpace=wrap;html=1;" vertex="1" parent="1">
          <mxGeometry x="-88" y="429" width="96" height="37" as="geometry" />
        </mxCell>
        <mxCell id="nhpWWC0AXzQ9nDcgwidZ-3" value="逻辑地址A" style="text;html=1;align=center;verticalAlign=middle;resizable=0;points=[];autosize=1;strokeColor=none;fillColor=none;" vertex="1" parent="1">
          <mxGeometry x="-147" y="403" width="74" height="26" as="geometry" />
        </mxCell>
        <mxCell id="nhpWWC0AXzQ9nDcgwidZ-10" value="b" style="rounded=0;whiteSpace=wrap;html=1;" vertex="1" parent="1">
          <mxGeometry x="-147" y="559" width="59" height="37" as="geometry" />
        </mxCell>
        <mxCell id="nhpWWC0AXzQ9nDcgwidZ-11" value="W" style="rounded=0;whiteSpace=wrap;html=1;" vertex="1" parent="1">
          <mxGeometry x="-88" y="559" width="96" height="37" as="geometry" />
        </mxCell>
        <mxCell id="nhpWWC0AXzQ9nDcgwidZ-12" value="物理地址E" style="text;html=1;align=center;verticalAlign=middle;resizable=0;points=[];autosize=1;strokeColor=none;fillColor=none;" vertex="1" parent="1">
          <mxGeometry x="-147" y="533" width="74" height="26" as="geometry" />
        </mxCell>
        <mxCell id="nhpWWC0AXzQ9nDcgwidZ-26" value="" style="group" vertex="1" connectable="0" parent="1">
          <mxGeometry x="-352" y="496" width="136" height="114" as="geometry" />
        </mxCell>
        <mxCell id="nhpWWC0AXzQ9nDcgwidZ-14" value="..." style="whiteSpace=wrap;html=1;" vertex="1" parent="nhpWWC0AXzQ9nDcgwidZ-26">
          <mxGeometry x="47" y="26" width="47" height="22" as="geometry" />
        </mxCell>
        <mxCell id="nhpWWC0AXzQ9nDcgwidZ-15" value="..." style="whiteSpace=wrap;html=1;" vertex="1" parent="nhpWWC0AXzQ9nDcgwidZ-26">
          <mxGeometry x="47" y="48" width="47" height="22" as="geometry" />
        </mxCell>
        <mxCell id="nhpWWC0AXzQ9nDcgwidZ-16" value="b&lt;br&gt;" style="whiteSpace=wrap;html=1;" vertex="1" parent="nhpWWC0AXzQ9nDcgwidZ-26">
          <mxGeometry x="47" y="70" width="47" height="22" as="geometry" />
        </mxCell>
        <mxCell id="nhpWWC0AXzQ9nDcgwidZ-17" value="..." style="whiteSpace=wrap;html=1;" vertex="1" parent="nhpWWC0AXzQ9nDcgwidZ-26">
          <mxGeometry x="47" y="92" width="47" height="22" as="geometry" />
        </mxCell>
        <mxCell id="nhpWWC0AXzQ9nDcgwidZ-18" value="0" style="whiteSpace=wrap;html=1;fillColor=default;strokeColor=none;" vertex="1" parent="nhpWWC0AXzQ9nDcgwidZ-26">
          <mxGeometry y="26" width="47" height="22" as="geometry" />
        </mxCell>
        <mxCell id="nhpWWC0AXzQ9nDcgwidZ-19" value="..." style="whiteSpace=wrap;html=1;fillColor=default;strokeColor=none;" vertex="1" parent="nhpWWC0AXzQ9nDcgwidZ-26">
          <mxGeometry y="48" width="47" height="22" as="geometry" />
        </mxCell>
        <mxCell id="nhpWWC0AXzQ9nDcgwidZ-20" value="P&lt;br&gt;" style="whiteSpace=wrap;html=1;fillColor=default;strokeColor=none;" vertex="1" parent="nhpWWC0AXzQ9nDcgwidZ-26">
          <mxGeometry y="70" width="47" height="22" as="geometry" />
        </mxCell>
        <mxCell id="nhpWWC0AXzQ9nDcgwidZ-21" value="..." style="whiteSpace=wrap;html=1;fillColor=default;strokeColor=none;" vertex="1" parent="nhpWWC0AXzQ9nDcgwidZ-26">
          <mxGeometry y="92" width="47" height="22" as="geometry" />
        </mxCell>
        <mxCell id="nhpWWC0AXzQ9nDcgwidZ-22" value="页号" style="text;html=1;align=center;verticalAlign=middle;resizable=0;points=[];autosize=1;strokeColor=none;fillColor=none;" vertex="1" parent="nhpWWC0AXzQ9nDcgwidZ-26">
          <mxGeometry x="2.5" width="42" height="26" as="geometry" />
        </mxCell>
        <mxCell id="nhpWWC0AXzQ9nDcgwidZ-23" value="块号" style="text;html=1;align=center;verticalAlign=middle;resizable=0;points=[];autosize=1;strokeColor=none;fillColor=none;" vertex="1" parent="nhpWWC0AXzQ9nDcgwidZ-26">
          <mxGeometry x="49.5" width="42" height="26" as="geometry" />
        </mxCell>
        <mxCell id="nhpWWC0AXzQ9nDcgwidZ-24" value="页表" style="text;html=1;align=center;verticalAlign=middle;resizable=0;points=[];autosize=1;strokeColor=none;fillColor=none;" vertex="1" parent="nhpWWC0AXzQ9nDcgwidZ-26">
          <mxGeometry x="94" y="26" width="42" height="26" as="geometry" />
        </mxCell>
        <mxCell id="nhpWWC0AXzQ9nDcgwidZ-27" style="edgeStyle=orthogonalEdgeStyle;rounded=0;orthogonalLoop=1;jettySize=auto;html=1;entryX=0;entryY=0.5;entryDx=0;entryDy=0;" edge="1" parent="1" source="nhpWWC0AXzQ9nDcgwidZ-16" target="nhpWWC0AXzQ9nDcgwidZ-10">
          <mxGeometry relative="1" as="geometry" />
        </mxCell>
        <mxCell id="nhpWWC0AXzQ9nDcgwidZ-36" style="edgeStyle=orthogonalEdgeStyle;rounded=0;orthogonalLoop=1;jettySize=auto;html=1;entryX=0;entryY=0.5;entryDx=0;entryDy=0;" edge="1" parent="1" source="nhpWWC0AXzQ9nDcgwidZ-29" target="nhpWWC0AXzQ9nDcgwidZ-20">
          <mxGeometry relative="1" as="geometry">
            <Array as="points">
              <mxPoint x="-442" y="577" />
            </Array>
          </mxGeometry>
        </mxCell>
        <mxCell id="nhpWWC0AXzQ9nDcgwidZ-29" value="+" style="ellipse;whiteSpace=wrap;html=1;aspect=fixed;fillColor=default;" vertex="1" parent="1">
          <mxGeometry x="-464" y="426" width="43" height="43" as="geometry" />
        </mxCell>
        <mxCell id="nhpWWC0AXzQ9nDcgwidZ-38" style="edgeStyle=orthogonalEdgeStyle;rounded=0;orthogonalLoop=1;jettySize=auto;html=1;" edge="1" parent="1" source="nhpWWC0AXzQ9nDcgwidZ-30" target="nhpWWC0AXzQ9nDcgwidZ-37">
          <mxGeometry relative="1" as="geometry" />
        </mxCell>
        <mxCell id="nhpWWC0AXzQ9nDcgwidZ-39" style="edgeStyle=orthogonalEdgeStyle;rounded=0;orthogonalLoop=1;jettySize=auto;html=1;startArrow=classic;startFill=1;endArrow=none;endFill=0;" edge="1" parent="1" source="nhpWWC0AXzQ9nDcgwidZ-30">
          <mxGeometry relative="1" as="geometry">
            <mxPoint x="-217" y="447" as="targetPoint" />
          </mxGeometry>
        </mxCell>
        <mxCell id="nhpWWC0AXzQ9nDcgwidZ-30" value="&amp;gt;" style="ellipse;whiteSpace=wrap;html=1;aspect=fixed;fillColor=default;" vertex="1" parent="1">
          <mxGeometry x="-239" y="346" width="43" height="43" as="geometry" />
        </mxCell>
        <mxCell id="nhpWWC0AXzQ9nDcgwidZ-32" value="" style="group" vertex="1" connectable="0" parent="1">
          <mxGeometry x="-494" y="323" width="200" height="63" as="geometry" />
        </mxCell>
        <mxCell id="nhpWWC0AXzQ9nDcgwidZ-7" value="页表起始地址F" style="rounded=0;whiteSpace=wrap;html=1;" vertex="1" parent="nhpWWC0AXzQ9nDcgwidZ-32">
          <mxGeometry y="26" width="104" height="37" as="geometry" />
        </mxCell>
        <mxCell id="nhpWWC0AXzQ9nDcgwidZ-8" value="页表长度M" style="rounded=0;whiteSpace=wrap;html=1;" vertex="1" parent="nhpWWC0AXzQ9nDcgwidZ-32">
          <mxGeometry x="104" y="26" width="96" height="37" as="geometry" />
        </mxCell>
        <mxCell id="nhpWWC0AXzQ9nDcgwidZ-9" value="页表寄存器" style="text;html=1;align=center;verticalAlign=middle;resizable=0;points=[];autosize=1;strokeColor=none;fillColor=none;" vertex="1" parent="nhpWWC0AXzQ9nDcgwidZ-32">
          <mxGeometry x="43" width="78" height="26" as="geometry" />
        </mxCell>
        <mxCell id="nhpWWC0AXzQ9nDcgwidZ-33" style="edgeStyle=orthogonalEdgeStyle;rounded=0;orthogonalLoop=1;jettySize=auto;html=1;entryX=0.5;entryY=0;entryDx=0;entryDy=0;" edge="1" parent="1" source="nhpWWC0AXzQ9nDcgwidZ-7" target="nhpWWC0AXzQ9nDcgwidZ-29">
          <mxGeometry relative="1" as="geometry" />
        </mxCell>
        <mxCell id="nhpWWC0AXzQ9nDcgwidZ-35" style="edgeStyle=orthogonalEdgeStyle;rounded=0;orthogonalLoop=1;jettySize=auto;html=1;entryX=0;entryY=0.5;entryDx=0;entryDy=0;" edge="1" parent="1" source="nhpWWC0AXzQ9nDcgwidZ-8" target="nhpWWC0AXzQ9nDcgwidZ-30">
          <mxGeometry relative="1" as="geometry" />
        </mxCell>
        <mxCell id="nhpWWC0AXzQ9nDcgwidZ-37" value="越界中断" style="text;html=1;align=center;verticalAlign=middle;resizable=0;points=[];autosize=1;strokeColor=none;fillColor=none;" vertex="1" parent="1">
          <mxGeometry x="-250.5" y="292" width="66" height="26" as="geometry" />
        </mxCell>
      </root>
    </mxGraphModel>
  </diagram>
</mxfile>
